<svg version="1.1" id="Layer_1" xmlns="http://www.w3.org/2000/svg" xmlns:xlink="http://www.w3.org/1999/xlink" x="0px" y="0px"
	 width="100%" viewBox="0 0 3508 2481" enable-background="new 0 0 3508 2481" xml:space="preserve">
<path fill="#FFFFFF" opacity="1.000000" stroke="none" 
	d="
M1884.000000,2484.000000 
	C1256.000122,2484.000000 629.000244,2484.000000 2.000252,2484.000000 
	C2.000168,1656.666870 2.000168,829.333862 2.000084,2.000586 
	C1171.332886,2.000390 2340.665771,2.000390 3509.999023,2.000195 
	C3509.999268,829.332703 3509.999268,1656.665405 3509.999512,2483.999023 
	C2968.333252,2484.000000 2426.666748,2484.000000 1884.000000,2484.000000 
M1356.704346,530.616394 
	C1356.704346,530.616394 1356.766846,531.191833 1356.389648,533.134949 
	C1356.371338,690.194153 1356.352661,847.253357 1356.344360,1004.312561 
	C1356.344238,1005.640076 1356.487427,1006.967651 1355.705322,1009.384521 
	C1325.790283,1026.715698 1295.895752,1044.082397 1265.956543,1061.371704 
	C1161.160400,1121.888550 1056.395752,1182.460449 951.439697,1242.698608 
	C944.340088,1246.773438 942.132690,1251.237305 942.144470,1259.150391 
	C942.370361,1410.687866 942.307007,1562.225830 942.338257,1713.763672 
	C942.339050,1717.404907 942.738342,1721.046265 942.825500,1725.943848 
	C944.794983,1727.579590 946.576538,1729.540283 948.761414,1730.803467 
	C1005.145996,1763.403320 1061.588745,1795.902710 1117.987427,1828.478027 
	C1181.580444,1865.208618 1245.133179,1902.008301 1308.719604,1938.750122 
	C1324.784302,1948.032593 1340.910156,1957.209595 1356.925659,1966.387817 
	C1368.638672,1959.703003 1379.918823,1953.335815 1391.132568,1946.854126 
	C1482.621094,1893.972656 1574.100220,1841.075073 1665.575562,1788.170776 
	C1700.380249,1768.041504 1735.167358,1747.881714 1771.362427,1728.036987 
	C1909.243408,1807.535034 2047.124390,1887.033081 2184.973145,1966.512451 
	C2197.009277,1959.610962 2208.552002,1953.030762 2220.058838,1946.388794 
	C2322.263428,1887.394287 2424.460449,1828.386108 2526.664062,1769.389404 
	C2548.543701,1756.759399 2570.500244,1744.260498 2592.256592,1731.421875 
	C2595.023682,1729.788818 2599.671387,1729.270264 2599.630615,1722.359619 
	C2599.643555,1668.046265 2599.664062,1613.733032 2599.667236,1559.419678 
	C2599.673096,1458.789917 2599.617676,1358.160034 2599.785400,1257.530640 
	C2599.796387,1250.865234 2598.144287,1247.062866 2591.816406,1243.485962 
	C2547.549805,1218.463989 2503.639160,1192.812378 2459.605469,1167.377930 
	C2396.288330,1130.804565 2332.979736,1094.216675 2269.635010,1057.690918 
	C2241.715820,1041.592041 2213.717285,1025.630737 2185.791016,1007.782471 
	C2185.756592,1003.786682 2185.691895,999.790833 2185.691895,995.795044 
	C2185.686768,844.261780 2185.657959,692.728455 2185.788086,541.195251 
	C2185.793701,534.673767 2184.553711,530.299438 2178.242432,526.674500 
	C2070.137451,464.584900 1962.191040,402.219574 1854.207520,339.918793 
	C1828.579102,325.132477 1802.966553,310.318390 1777.272827,295.646667 
	C1774.700928,294.178070 1772.289673,290.599426 1767.069336,294.016022 
	C1704.623413,330.042969 1642.166504,366.050720 1579.734619,402.101959 
	C1505.501221,444.967834 1431.289307,487.870880 1356.704346,530.616394 
z"/>
<path fill="#1588DB" opacity="1.000000" stroke="none" 
	d="
M1768.543091,293.612213 
	C1772.289673,290.599426 1774.700928,294.178070 1777.272827,295.646667 
	C1802.966553,310.318390 1828.579102,325.132477 1854.207520,339.918793 
	C1962.191040,402.219574 2070.137451,464.584900 2178.242432,526.674500 
	C2184.553711,530.299438 2185.793701,534.673767 2185.788086,541.195251 
	C2185.657959,692.728455 2185.686768,844.261780 2185.691895,995.795044 
	C2185.691895,999.790833 2185.756592,1003.786682 2185.448242,1008.899536 
	C2185.105713,1010.016602 2184.337158,1009.983459 2183.686035,1009.705994 
	C2121.708984,974.023193 2060.378174,938.625671 1999.057861,903.210266 
	C1935.720215,866.629944 1872.416992,829.989929 1809.040283,793.477356 
	C1796.113159,786.029785 1782.926514,779.032593 1769.940796,770.904175 
	C1770.062256,614.058105 1770.110840,458.135651 1770.075684,302.213165 
	C1770.075073,299.346100 1769.076172,296.479187 1768.543091,293.612213 
z"/>
<path fill="#1588DB" opacity="1.000000" stroke="none" 
	d="
M2599.411377,1724.294434 
	C2599.671387,1729.270264 2595.023682,1729.788818 2592.256592,1731.421875 
	C2570.500244,1744.260498 2548.543701,1756.759399 2526.664062,1769.389404 
	C2424.460449,1828.386108 2322.263428,1887.394287 2220.058838,1946.388794 
	C2208.552002,1953.030762 2197.009277,1959.610962 2184.973145,1966.512451 
	C2047.124390,1887.033081 1909.243408,1807.535034 1770.726929,1727.496094 
	C1770.091431,1726.955322 1770.393677,1726.223633 1770.981689,1725.888428 
	C1775.042236,1723.599854 1778.535278,1721.682007 1781.984253,1719.688110 
	C1841.519653,1685.268188 1901.037720,1650.818481 1960.584473,1616.418701 
	C2007.186035,1589.497314 2053.802002,1562.601318 2100.449219,1535.759521 
	C2128.371338,1519.692505 2156.365967,1503.751709 2185.053711,1487.754883 
	C2186.743164,1488.011108 2187.818604,1488.070801 2188.653320,1488.550049 
	C2210.854736,1501.302612 2233.055420,1514.056885 2255.207275,1526.895020 
	C2307.565430,1557.238892 2359.867188,1587.679199 2412.249023,1617.981812 
	C2468.662842,1650.616699 2525.120361,1683.175537 2581.623535,1715.655273 
	C2587.324463,1718.932251 2593.471436,1721.433350 2599.411377,1724.294434 
z"/>
<path fill="#042C91" opacity="1.000000" stroke="none" 
	d="
M1770.393677,1726.223633 
	C1770.393677,1726.223633 1770.091431,1726.955322 1770.026855,1727.345459 
	C1735.167358,1747.881714 1700.380249,1768.041504 1665.575562,1788.170776 
	C1574.100220,1841.075073 1482.621094,1893.972656 1391.132568,1946.854126 
	C1379.918823,1953.335815 1368.638672,1959.703003 1356.925659,1966.387817 
	C1340.910156,1957.209595 1324.784302,1948.032593 1308.719604,1938.750122 
	C1245.133179,1902.008301 1181.580444,1865.208618 1117.987427,1828.478027 
	C1061.588745,1795.902710 1005.145996,1763.403320 948.761414,1730.803467 
	C946.576538,1729.540283 944.794983,1727.579590 943.563232,1725.148438 
	C984.968811,1701.066284 1025.684448,1677.862793 1066.291504,1654.470337 
	C1110.656128,1628.913330 1154.915771,1603.173828 1199.229370,1577.527954 
	C1240.953369,1553.380981 1282.642944,1529.173950 1324.448853,1505.169434 
	C1335.358765,1498.905029 1346.645752,1493.297119 1358.431274,1487.725952 
	C1381.828125,1501.197388 1404.549805,1514.336304 1427.278809,1527.462891 
	C1528.267334,1585.786865 1629.267700,1644.090332 1730.235962,1702.449219 
	C1743.703247,1710.233398 1757.011719,1718.292114 1770.393677,1726.223633 
z"/>
<path fill="#032B91" opacity="1.000000" stroke="none" 
	d="
M2599.520996,1723.327148 
	C2593.471436,1721.433350 2587.324463,1718.932251 2581.623535,1715.655273 
	C2525.120361,1683.175537 2468.662842,1650.616699 2412.249023,1617.981812 
	C2359.867188,1587.679199 2307.565430,1557.238892 2255.207275,1526.895020 
	C2233.055420,1514.056885 2210.854736,1501.302612 2188.653320,1488.550049 
	C2187.818604,1488.070801 2186.743164,1488.011108 2185.056396,1486.846191 
	C2184.334473,1327.285522 2184.335693,1168.634521 2184.337158,1009.983459 
	C2184.337158,1009.983459 2185.105713,1010.016602 2185.430176,1009.811768 
	C2213.717285,1025.630737 2241.715820,1041.592041 2269.635010,1057.690918 
	C2332.979736,1094.216675 2396.288330,1130.804565 2459.605469,1167.377930 
	C2503.639160,1192.812378 2547.549805,1218.463989 2591.816406,1243.485962 
	C2598.144287,1247.062866 2599.796387,1250.865234 2599.785400,1257.530640 
	C2599.617676,1358.160034 2599.673096,1458.789917 2599.667236,1559.419678 
	C2599.664062,1613.733032 2599.643555,1668.046265 2599.520996,1723.327148 
z"/>
<path fill="#1588DB" opacity="1.000000" stroke="none" 
	d="
M1357.759521,1487.387695 
	C1346.645752,1493.297119 1335.358765,1498.905029 1324.448853,1505.169434 
	C1282.642944,1529.173950 1240.953369,1553.380981 1199.229370,1577.527954 
	C1154.915771,1603.173828 1110.656128,1628.913330 1066.291504,1654.470337 
	C1025.684448,1677.862793 984.968811,1701.066284 943.626343,1724.520264 
	C942.738342,1721.046265 942.339050,1717.404907 942.338257,1713.763672 
	C942.307007,1562.225830 942.370361,1410.687866 942.144470,1259.150391 
	C942.132690,1251.237305 944.340088,1246.773438 951.439697,1242.698608 
	C1056.395752,1182.460449 1161.160400,1121.888550 1265.956543,1061.371704 
	C1295.895752,1044.082397 1325.790283,1026.715698 1356.706299,1008.669800 
	C1358.494263,1008.013367 1359.281372,1008.071533 1359.571167,1008.817932 
	C1358.610474,1012.041260 1357.789062,1014.570557 1357.747437,1017.112549 
	C1357.588989,1026.761841 1357.680908,1036.415283 1357.682617,1046.067139 
	C1357.708008,1193.173950 1357.733765,1340.280884 1357.759521,1487.387695 
z"/>
<path fill="#032B91" opacity="1.000000" stroke="none" 
	d="
M1360.068481,1008.129761 
	C1359.281372,1008.071533 1358.494263,1008.013367 1357.135498,1008.125122 
	C1356.487427,1006.967651 1356.344238,1005.640076 1356.344360,1004.312561 
	C1356.352661,847.253357 1356.371338,690.194153 1356.766846,532.279907 
	C1357.143921,531.424927 1357.067993,530.757812 1357.067993,530.757812 
	C1431.289307,487.870880 1505.501221,444.967834 1579.734619,402.101959 
	C1642.166504,366.050720 1704.623413,330.042969 1767.806152,293.814117 
	C1769.076172,296.479187 1770.075073,299.346100 1770.075684,302.213165 
	C1770.110840,458.135651 1770.062256,614.058105 1769.345947,771.251343 
	C1734.444214,792.347046 1700.237427,812.204285 1665.989380,831.990112 
	C1594.599731,873.233337 1523.208496,914.473572 1451.776489,955.643433 
	C1421.260376,973.231262 1390.640991,990.639771 1360.068481,1008.129761 
z"/>
<path fill="#1588DB" opacity="1.000000" stroke="none" 
	d="
M1356.886230,530.687134 
	C1357.067993,530.757812 1357.143921,531.424927 1356.955322,531.308350 
	C1356.766846,531.191833 1356.704346,530.616394 1356.886230,530.687134 
z"/>
<path fill="#FEFEFF" opacity="1.000000" stroke="none" 
	d="
M1359.571167,1008.817932 
	C1390.640991,990.639771 1421.260376,973.231262 1451.776489,955.643433 
	C1523.208496,914.473572 1594.599731,873.233337 1665.989380,831.990112 
	C1700.237427,812.204285 1734.444214,792.347046 1769.264648,772.174927 
	C1782.926514,779.032593 1796.113159,786.029785 1809.040283,793.477356 
	C1872.416992,829.989929 1935.720215,866.629944 1999.057861,903.210266 
	C2060.378174,938.625671 2121.708984,974.023193 2183.686035,1009.705994 
	C2184.335693,1168.634521 2184.334473,1327.285522 2184.330566,1486.845337 
	C2156.365967,1503.751709 2128.371338,1519.692505 2100.449219,1535.759521 
	C2053.802002,1562.601318 2007.186035,1589.497314 1960.584473,1616.418701 
	C1901.037720,1650.818481 1841.519653,1685.268188 1781.984253,1719.688110 
	C1778.535278,1721.682007 1775.042236,1723.599854 1770.981689,1725.888428 
	C1757.011719,1718.292114 1743.703247,1710.233398 1730.235962,1702.449219 
	C1629.267700,1644.090332 1528.267334,1585.786865 1427.278809,1527.462891 
	C1404.549805,1514.336304 1381.828125,1501.197388 1358.431274,1487.725952 
	C1357.733765,1340.280884 1357.708008,1193.173950 1357.682617,1046.067139 
	C1357.680908,1036.415283 1357.588989,1026.761841 1357.747437,1017.112549 
	C1357.789062,1014.570557 1358.610474,1012.041260 1359.571167,1008.817932 
M1495.666260,1265.000000 
	C1495.666260,1281.192993 1495.666260,1297.385986 1495.666260,1314.154297 
	C1500.177002,1314.154297 1503.457886,1314.154297 1506.738770,1314.154297 
	C1543.404541,1314.154297 1580.072021,1314.372559 1616.735229,1314.064331 
	C1635.671387,1313.905029 1654.652222,1313.473755 1673.518921,1311.979248 
	C1699.919556,1309.888184 1721.005371,1297.803589 1735.490845,1275.255493 
	C1746.016235,1258.871704 1751.095947,1240.954102 1750.382324,1221.342896 
	C1749.215332,1189.270996 1734.260620,1166.578857 1705.021606,1153.322510 
	C1702.132202,1152.012451 1699.225586,1150.740479 1695.672363,1149.159668 
	C1698.877075,1147.038574 1701.399414,1145.446777 1703.841919,1143.740845 
	C1750.385864,1111.234497 1745.106689,1040.206177 1694.437622,1014.562561 
	C1677.844482,1006.164673 1659.976074,1004.569824 1642.118652,1004.343201 
	C1596.127197,1003.759460 1550.123413,1004.139954 1504.124634,1004.168457 
	C1501.552856,1004.170044 1498.981323,1004.471008 1495.666260,1004.679321 
	C1495.666260,1091.144531 1495.666260,1177.072266 1495.666260,1265.000000 
M1949.191284,1046.230347 
	C1921.749023,1077.048218 1894.225098,1107.790649 1866.203735,1138.072754 
	C1865.521973,1137.744019 1864.840210,1137.415405 1864.158447,1137.086670 
	C1864.158447,1093.025391 1864.158447,1048.964111 1864.158447,1004.856567 
	C1843.093018,1004.856567 1823.003174,1004.856567 1803.070557,1004.856567 
	C1803.070557,1108.292114 1803.070557,1211.014648 1803.070557,1313.694824 
	C1823.699707,1313.694824 1843.579956,1313.694824 1864.335938,1313.694824 
	C1864.335938,1311.001343 1864.336182,1308.764038 1864.336182,1306.526611 
	C1864.336304,1280.541992 1864.470703,1254.556030 1864.226807,1228.573608 
	C1864.176025,1223.174561 1865.554565,1219.170898 1869.593140,1215.495728 
	C1874.494873,1211.035034 1878.727783,1205.847290 1883.363403,1201.084595 
	C1893.267212,1190.909058 1903.243774,1180.804565 1913.905396,1169.942871 
	C1941.672852,1218.164429 1969.166748,1265.911011 1996.677368,1313.686401 
	C2023.370117,1313.686401 2049.846924,1313.686401 2077.664551,1313.686401 
	C2037.238892,1250.373901 1997.413330,1188.001099 1957.205078,1125.029175 
	C1994.994751,1085.166748 2032.579712,1045.520264 2069.957275,1006.092590 
	C2069.200928,1004.860291 2069.032959,1004.344849 2068.863525,1004.344299 
	C2042.881104,1004.255493 2016.898438,1004.261047 1990.916870,1004.075256 
	C1987.800415,1004.052979 1986.286865,1005.565186 1984.418945,1007.640259 
	C1973.083374,1020.232483 1961.567871,1032.662964 1949.191284,1046.230347 
M1974.331421,1446.999634 
	C1974.331421,1433.298950 1974.331421,1419.598267 1974.331421,1405.897583 
	C1975.011719,1405.805176 1975.692139,1405.712769 1976.372437,1405.620361 
	C1983.169312,1432.415039 1989.966187,1459.209595 1996.645142,1485.539795 
	C2005.333374,1485.539795 2012.834351,1485.539795 2020.645142,1485.539795 
	C2027.414185,1458.710938 2034.037964,1432.457886 2040.661743,1406.204834 
	C2041.299805,1406.307373 2041.937744,1406.409912 2042.575806,1406.512451 
	C2042.575806,1432.736328 2042.575806,1458.960205 2042.575806,1485.694336 
	C2050.449707,1485.694336 2057.571533,1485.694336 2065.191406,1485.694336 
	C2065.191406,1446.341797 2065.191406,1407.542847 2065.191406,1368.192749 
	C2052.897949,1368.192749 2041.118164,1368.192749 2029.129395,1368.192749 
	C2022.472046,1393.389404 2015.952881,1418.063110 2009.433716,1442.736938 
	C2009.001465,1442.788330 2008.569214,1442.839722 2008.136963,1442.891113 
	C2001.408691,1417.991089 1994.680542,1393.090942 1987.932373,1368.117432 
	C1975.695923,1368.117432 1964.189697,1368.117432 1952.773438,1368.117432 
	C1950.806641,1380.709351 1951.271851,1478.760254 1953.179443,1485.544189 
	C1960.078369,1485.544189 1966.901611,1485.544189 1974.331543,1485.544189 
	C1974.331543,1472.898926 1974.331543,1460.948975 1974.331421,1446.999634 
M1714.289795,1381.200195 
	C1714.289795,1416.033447 1714.289795,1450.866699 1714.289795,1486.035767 
	C1723.559692,1485.992432 1731.415527,1487.221924 1740.010132,1485.033569 
	C1740.010132,1468.152832 1740.010132,1451.651367 1740.010132,1435.306274 
	C1753.659302,1433.400146 1778.258301,1433.846313 1785.985474,1436.269897 
	C1785.985474,1452.473389 1785.985474,1468.975830 1785.985474,1485.439209 
	C1794.332031,1485.439209 1801.735474,1485.439209 1809.009766,1485.439209 
	C1809.009766,1445.824707 1809.009766,1407.028931 1809.009766,1368.089600 
	C1801.102661,1368.089600 1793.905640,1368.089600 1785.402466,1368.089600 
	C1785.402466,1383.321167 1785.402466,1398.075928 1785.402466,1412.963623 
	C1769.587280,1412.963623 1755.096558,1412.963623 1739.710205,1412.963623 
	C1739.710205,1405.115479 1739.756104,1397.850952 1739.697510,1390.587280 
	C1739.637207,1383.096558 1739.474976,1375.606567 1739.356689,1368.074341 
	C1730.528198,1368.074341 1722.976685,1368.074341 1714.289917,1368.074341 
	C1714.289917,1372.106445 1714.289917,1375.684937 1714.289795,1381.200195 
M1605.703491,1468.895996 
	C1605.703491,1460.038086 1605.703491,1451.180176 1605.703491,1441.619629 
	C1615.639648,1441.619629 1624.252808,1441.877563 1632.845459,1441.569458 
	C1655.059448,1440.773315 1666.680298,1431.917603 1670.714966,1414.599854 
	C1671.823608,1409.841064 1671.801270,1404.715210 1671.630859,1399.780884 
	C1671.019775,1382.093262 1658.493408,1369.005615 1640.725708,1368.316895 
	C1622.447144,1367.608276 1604.133057,1367.800537 1585.834106,1367.670898 
	C1584.627075,1367.662354 1583.415527,1368.268188 1582.260986,1368.573730 
	C1582.260986,1407.827515 1582.260986,1446.610718 1582.260986,1485.466553 
	C1590.279907,1485.466553 1597.684204,1485.466553 1605.703369,1485.466553 
	C1605.703369,1480.083740 1605.703369,1475.464355 1605.703491,1468.895996 
M1909.687256,1370.908447 
	C1898.547241,1365.303589 1886.675537,1364.493042 1874.646484,1366.246460 
	C1854.440674,1369.192017 1841.024170,1380.737549 1833.519165,1399.607788 
	C1829.202271,1410.461914 1829.605225,1421.747070 1829.658081,1433.050171 
	C1829.824219,1468.572632 1856.655518,1492.091919 1891.798950,1487.631836 
	C1909.366943,1485.402222 1928.214600,1473.832886 1931.544800,1448.838745 
	C1924.185303,1446.547363 1916.727661,1444.225464 1908.892822,1441.786011 
	C1907.541504,1445.397095 1906.682495,1448.238281 1905.444702,1450.903442 
	C1900.835693,1460.826294 1893.507812,1466.558350 1882.038574,1466.244263 
	C1870.933105,1465.940063 1861.921265,1459.883423 1857.988159,1448.640015 
	C1852.774292,1433.735229 1852.931885,1418.588623 1858.295654,1403.755249 
	C1862.387939,1392.438110 1871.728882,1386.995850 1882.995117,1386.764648 
	C1893.148438,1386.556396 1901.496704,1391.551514 1905.922485,1401.491211 
	C1906.579590,1402.966919 1907.424438,1404.359009 1908.533691,1406.452515 
	C1916.298462,1404.635498 1923.923584,1402.851196 1932.301147,1400.890747 
	C1928.882935,1387.870972 1922.533325,1377.928345 1909.687256,1370.908447 
M1507.675049,1446.999268 
	C1507.675049,1459.849854 1507.675049,1472.700439 1507.675049,1485.391602 
	C1516.408691,1485.391602 1523.800049,1485.391602 1532.031494,1485.391602 
	C1532.031494,1452.751343 1532.031494,1420.952393 1532.031494,1388.201660 
	C1543.686035,1388.201660 1554.513550,1388.201660 1565.535645,1388.201660 
	C1565.535645,1380.831787 1565.535645,1374.455933 1565.535645,1368.167236 
	C1534.265503,1368.167236 1503.788086,1368.167236 1472.820068,1368.167236 
	C1472.820068,1374.888672 1472.820068,1381.024048 1472.820068,1388.267578 
	C1484.424194,1388.267578 1495.560181,1388.267578 1507.674927,1388.267578 
	C1507.674927,1407.904785 1507.674927,1426.452271 1507.675049,1446.999268 
M1692.324829,1475.011108 
	C1692.215454,1470.879150 1692.105957,1466.747070 1692.005371,1462.947876 
	C1683.790771,1462.947876 1677.002808,1462.947876 1670.171753,1462.947876 
	C1670.171753,1470.861450 1670.171753,1478.040161 1670.171753,1485.511230 
	C1677.714966,1485.511230 1684.745605,1485.511230 1692.325073,1485.511230 
	C1692.325073,1482.166504 1692.325073,1479.550171 1692.324829,1475.011108 
z"/>
<path fill="#052C92" opacity="1.000000" stroke="none" 
	d="
M1495.666260,1264.000000 
	C1495.666260,1177.072266 1495.666260,1091.144531 1495.666260,1004.679321 
	C1498.981323,1004.471008 1501.552856,1004.170044 1504.124634,1004.168457 
	C1550.123413,1004.139954 1596.127197,1003.759460 1642.118652,1004.343201 
	C1659.976074,1004.569824 1677.844482,1006.164673 1694.437622,1014.562561 
	C1745.106689,1040.206177 1750.385864,1111.234497 1703.841919,1143.740845 
	C1701.399414,1145.446777 1698.877075,1147.038574 1695.672363,1149.159668 
	C1699.225586,1150.740479 1702.132202,1152.012451 1705.021606,1153.322510 
	C1734.260620,1166.578857 1749.215332,1189.270996 1750.382324,1221.342896 
	C1751.095947,1240.954102 1746.016235,1258.871704 1735.490845,1275.255493 
	C1721.005371,1297.803589 1699.919556,1309.888184 1673.518921,1311.979248 
	C1654.652222,1313.473755 1635.671387,1313.905029 1616.735229,1314.064331 
	C1580.072021,1314.372559 1543.404541,1314.154297 1506.738770,1314.154297 
	C1503.457886,1314.154297 1500.177002,1314.154297 1495.666260,1314.154297 
	C1495.666260,1297.385986 1495.666260,1281.192993 1495.666260,1264.000000 
M1620.964600,1179.423340 
	C1600.134399,1179.423340 1579.304199,1179.423340 1558.318604,1179.423340 
	C1558.318604,1207.229370 1558.318604,1233.939819 1558.318604,1260.400513 
	C1559.573730,1260.869751 1560.177612,1261.297607 1560.776367,1261.290283 
	C1590.650879,1260.925049 1620.537598,1260.920166 1650.393921,1259.965820 
	C1666.619385,1259.447144 1679.651245,1249.020264 1684.097046,1234.789551 
	C1690.618530,1213.913940 1683.555298,1186.282104 1650.642578,1181.722046 
	C1641.480103,1180.452515 1632.181519,1180.165283 1620.964600,1179.423340 
M1633.726440,1057.317627 
	C1630.114136,1056.926636 1626.503784,1056.219360 1622.889282,1056.197876 
	C1603.919556,1056.084717 1584.948730,1056.124023 1565.978271,1056.169678 
	C1563.418579,1056.175781 1560.859619,1056.516602 1558.295654,1056.702759 
	C1558.295654,1080.414185 1558.295654,1103.520264 1558.295654,1126.942017 
	C1560.164429,1127.144653 1561.443848,1127.421265 1562.718506,1127.401245 
	C1588.296387,1127.001587 1613.878418,1126.744873 1639.447998,1126.036743 
	C1647.481445,1125.814209 1655.084961,1123.269775 1661.727417,1118.386719 
	C1672.912476,1110.164062 1675.530884,1098.727905 1674.362915,1085.696289 
	C1673.431274,1075.301270 1668.459473,1067.603149 1659.610352,1062.277466 
	C1652.173828,1057.802002 1643.978638,1057.041748 1633.726440,1057.317627 
z"/>
<path fill="#052D92" opacity="1.000000" stroke="none" 
	d="
M1949.651855,1045.688843 
	C1961.567871,1032.662964 1973.083374,1020.232483 1984.418945,1007.640259 
	C1986.286865,1005.565186 1987.800415,1004.052979 1990.916870,1004.075256 
	C2016.898438,1004.261047 2042.881104,1004.255493 2068.863525,1004.344299 
	C2069.032959,1004.344849 2069.200928,1004.860291 2069.957275,1006.092590 
	C2032.579712,1045.520264 1994.994751,1085.166748 1957.205078,1125.029175 
	C1997.413330,1188.001099 2037.238892,1250.373901 2077.664551,1313.686401 
	C2049.846924,1313.686401 2023.370117,1313.686401 1996.677368,1313.686401 
	C1969.166748,1265.911011 1941.672852,1218.164429 1913.905396,1169.942871 
	C1903.243774,1180.804565 1893.267212,1190.909058 1883.363403,1201.084595 
	C1878.727783,1205.847290 1874.494873,1211.035034 1869.593140,1215.495728 
	C1865.554565,1219.170898 1864.176025,1223.174561 1864.226807,1228.573608 
	C1864.470703,1254.556030 1864.336304,1280.541992 1864.336182,1306.526611 
	C1864.336182,1308.764038 1864.335938,1311.001343 1864.335938,1313.694824 
	C1843.579956,1313.694824 1823.699707,1313.694824 1803.070557,1313.694824 
	C1803.070557,1211.014648 1803.070557,1108.292114 1803.070557,1004.856567 
	C1823.003174,1004.856567 1843.093018,1004.856567 1864.158447,1004.856567 
	C1864.158447,1048.964111 1864.158447,1093.025391 1864.158447,1137.086670 
	C1864.840210,1137.415405 1865.521973,1137.744019 1866.203735,1138.072754 
	C1894.225098,1107.790649 1921.749023,1077.048218 1949.651855,1045.688843 
z"/>
<path fill="#198ADC" opacity="1.000000" stroke="none" 
	d="
M1974.331543,1447.999268 
	C1974.331543,1460.948975 1974.331543,1472.898926 1974.331543,1485.544189 
	C1966.901611,1485.544189 1960.078369,1485.544189 1953.179443,1485.544189 
	C1951.271851,1478.760254 1950.806641,1380.709351 1952.773438,1368.117432 
	C1964.189697,1368.117432 1975.695923,1368.117432 1987.932373,1368.117432 
	C1994.680542,1393.090942 2001.408691,1417.991089 2008.136963,1442.891113 
	C2008.569214,1442.839722 2009.001465,1442.788330 2009.433716,1442.736938 
	C2015.952881,1418.063110 2022.472046,1393.389404 2029.129395,1368.192749 
	C2041.118164,1368.192749 2052.897949,1368.192749 2065.191406,1368.192749 
	C2065.191406,1407.542847 2065.191406,1446.341797 2065.191406,1485.694336 
	C2057.571533,1485.694336 2050.449707,1485.694336 2042.575806,1485.694336 
	C2042.575806,1458.960205 2042.575806,1432.736328 2042.575806,1406.512451 
	C2041.937744,1406.409912 2041.299805,1406.307373 2040.661743,1406.204834 
	C2034.037964,1432.457886 2027.414185,1458.710938 2020.645142,1485.539795 
	C2012.834351,1485.539795 2005.333374,1485.539795 1996.645142,1485.539795 
	C1989.966187,1459.209595 1983.169312,1432.415039 1976.372437,1405.620361 
	C1975.692139,1405.712769 1975.011719,1405.805176 1974.331421,1405.897583 
	C1974.331421,1419.598267 1974.331421,1433.298950 1974.331543,1447.999268 
z"/>
<path fill="#1A8BDC" opacity="1.000000" stroke="none" 
	d="
M1714.289795,1380.231812 
	C1714.289917,1375.684937 1714.289917,1372.106445 1714.289917,1368.074341 
	C1722.976685,1368.074341 1730.528198,1368.074341 1739.356689,1368.074341 
	C1739.474976,1375.606567 1739.637207,1383.096558 1739.697510,1390.587280 
	C1739.756104,1397.850952 1739.710205,1405.115479 1739.710205,1412.963623 
	C1755.096558,1412.963623 1769.587280,1412.963623 1785.402466,1412.963623 
	C1785.402466,1398.075928 1785.402466,1383.321167 1785.402466,1368.089600 
	C1793.905640,1368.089600 1801.102661,1368.089600 1809.009766,1368.089600 
	C1809.009766,1407.028931 1809.009766,1445.824707 1809.009766,1485.439209 
	C1801.735474,1485.439209 1794.332031,1485.439209 1785.985474,1485.439209 
	C1785.985474,1468.975830 1785.985474,1452.473389 1785.985474,1436.269897 
	C1778.258301,1433.846313 1753.659302,1433.400146 1740.010132,1435.306274 
	C1740.010132,1451.651367 1740.010132,1468.152832 1740.010132,1485.033569 
	C1731.415527,1487.221924 1723.559692,1485.992432 1714.289795,1486.035767 
	C1714.289795,1450.866699 1714.289795,1416.033447 1714.289795,1380.231812 
z"/>
<path fill="#198ADC" opacity="1.000000" stroke="none" 
	d="
M1605.703369,1469.870483 
	C1605.703369,1475.464355 1605.703369,1480.083740 1605.703369,1485.466553 
	C1597.684204,1485.466553 1590.279907,1485.466553 1582.260986,1485.466553 
	C1582.260986,1446.610718 1582.260986,1407.827515 1582.260986,1368.573730 
	C1583.415527,1368.268188 1584.627075,1367.662354 1585.834106,1367.670898 
	C1604.133057,1367.800537 1622.447144,1367.608276 1640.725708,1368.316895 
	C1658.493408,1369.005615 1671.019775,1382.093262 1671.630859,1399.780884 
	C1671.801270,1404.715210 1671.823608,1409.841064 1670.714966,1414.599854 
	C1666.680298,1431.917603 1655.059448,1440.773315 1632.845459,1441.569458 
	C1624.252808,1441.877563 1615.639648,1441.619629 1605.703491,1441.619629 
	C1605.703491,1451.180176 1605.703491,1460.038086 1605.703369,1469.870483 
M1640.974731,1416.238037 
	C1650.777832,1403.619751 1646.989380,1392.696533 1631.666748,1389.302368 
	C1623.186890,1387.423828 1614.763184,1388.301147 1606.176514,1388.538208 
	C1606.176514,1399.485352 1606.176514,1409.322510 1606.176514,1420.147705 
	C1617.714111,1419.348145 1628.951660,1422.720703 1640.974731,1416.238037 
z"/>
<path fill="#1A8BDC" opacity="1.000000" stroke="none" 
	d="
M1910.343262,1371.281982 
	C1922.533325,1377.928345 1928.882935,1387.870972 1932.301147,1400.890747 
	C1923.923584,1402.851196 1916.298462,1404.635498 1908.533691,1406.452515 
	C1907.424438,1404.359009 1906.579590,1402.966919 1905.922485,1401.491211 
	C1901.496704,1391.551514 1893.148438,1386.556396 1882.995117,1386.764648 
	C1871.728882,1386.995850 1862.387939,1392.438110 1858.295654,1403.755249 
	C1852.931885,1418.588623 1852.774292,1433.735229 1857.988159,1448.640015 
	C1861.921265,1459.883423 1870.933105,1465.940063 1882.038574,1466.244263 
	C1893.507812,1466.558350 1900.835693,1460.826294 1905.444702,1450.903442 
	C1906.682495,1448.238281 1907.541504,1445.397095 1908.892822,1441.786011 
	C1916.727661,1444.225464 1924.185303,1446.547363 1931.544800,1448.838745 
	C1928.214600,1473.832886 1909.366943,1485.402222 1891.798950,1487.631836 
	C1856.655518,1492.091919 1829.824219,1468.572632 1829.658081,1433.050171 
	C1829.605225,1421.747070 1829.202271,1410.461914 1833.519165,1399.607788 
	C1841.024170,1380.737549 1854.440674,1369.192017 1874.646484,1366.246460 
	C1886.675537,1364.493042 1898.547241,1365.303589 1910.343262,1371.281982 
z"/>
<path fill="#178ADC" opacity="1.000000" stroke="none" 
	d="
M1507.675049,1445.999512 
	C1507.674927,1426.452271 1507.674927,1407.904785 1507.674927,1388.267578 
	C1495.560181,1388.267578 1484.424194,1388.267578 1472.820068,1388.267578 
	C1472.820068,1381.024048 1472.820068,1374.888672 1472.820068,1368.167236 
	C1503.788086,1368.167236 1534.265503,1368.167236 1565.535645,1368.167236 
	C1565.535645,1374.455933 1565.535645,1380.831787 1565.535645,1388.201660 
	C1554.513550,1388.201660 1543.686035,1388.201660 1532.031494,1388.201660 
	C1532.031494,1420.952393 1532.031494,1452.751343 1532.031494,1485.391602 
	C1523.800049,1485.391602 1516.408691,1485.391602 1507.675049,1485.391602 
	C1507.675049,1472.700439 1507.675049,1459.849854 1507.675049,1445.999512 
z"/>
<path fill="#178ADC" opacity="1.000000" stroke="none" 
	d="
M1692.324951,1475.972412 
	C1692.325073,1479.550171 1692.325073,1482.166504 1692.325073,1485.511230 
	C1684.745605,1485.511230 1677.714966,1485.511230 1670.171753,1485.511230 
	C1670.171753,1478.040161 1670.171753,1470.861450 1670.171753,1462.947876 
	C1677.002808,1462.947876 1683.790771,1462.947876 1692.005371,1462.947876 
	C1692.105957,1466.747070 1692.215454,1470.879150 1692.324951,1475.972412 
z"/>
<path fill="#FDFCFE" opacity="1.000000" stroke="none" 
	d="
M1621.955078,1179.425293 
	C1632.181519,1180.165283 1641.480103,1180.452515 1650.642578,1181.722046 
	C1683.555298,1186.282104 1690.618530,1213.913940 1684.097046,1234.789551 
	C1679.651245,1249.020264 1666.619385,1259.447144 1650.393921,1259.965820 
	C1620.537598,1260.920166 1590.650879,1260.925049 1560.776367,1261.290283 
	C1560.177612,1261.297607 1559.573730,1260.869751 1558.318604,1260.400513 
	C1558.318604,1233.939819 1558.318604,1207.229370 1558.318604,1179.423340 
	C1579.304199,1179.423340 1600.134399,1179.423340 1621.955078,1179.425293 
z"/>
<path fill="#FCFCFE" opacity="1.000000" stroke="none" 
	d="
M1634.642578,1057.360474 
	C1643.978638,1057.041748 1652.173828,1057.802002 1659.610352,1062.277466 
	C1668.459473,1067.603149 1673.431274,1075.301270 1674.362915,1085.696289 
	C1675.530884,1098.727905 1672.912476,1110.164062 1661.727417,1118.386719 
	C1655.084961,1123.269775 1647.481445,1125.814209 1639.447998,1126.036743 
	C1613.878418,1126.744873 1588.296387,1127.001587 1562.718506,1127.401245 
	C1561.443848,1127.421265 1560.164429,1127.144653 1558.295654,1126.942017 
	C1558.295654,1103.520264 1558.295654,1080.414185 1558.295654,1056.702759 
	C1560.859619,1056.516602 1563.418579,1056.175781 1565.978271,1056.169678 
	C1584.948730,1056.124023 1603.919556,1056.084717 1622.889282,1056.197876 
	C1626.503784,1056.219360 1630.114136,1056.926636 1634.642578,1057.360474 
z"/>
<path fill="#FCFCFE" opacity="1.000000" stroke="none" 
	d="
M1640.323975,1416.733643 
	C1628.951660,1422.720703 1617.714111,1419.348145 1606.176514,1420.147705 
	C1606.176514,1409.322510 1606.176514,1399.485352 1606.176514,1388.538208 
	C1614.763184,1388.301147 1623.186890,1387.423828 1631.666748,1389.302368 
	C1646.989380,1392.696533 1650.777832,1403.619751 1640.323975,1416.733643 
z"/>
</svg>